<?xml version="1.0" encoding="UTF-8"?>
<svg version="1.1" viewBox="0 0 1550 1600" width="440" height="454" xmlns="http://www.w3.org/2000/svg">
<path transform="translate(676,389)" d="m0 0 29 1 27 4 17 4 24 8 18 8 19 10 18 12 12 9 12 11 8 7 11 12 11 14 14 21 12 23 5 8 19 9 18 7 26 1 28 3 24 5 20 7 24 11 17 10 17 12 14 12 18 18 11 14 9 13 9 15 11 23 8 24 5 22 3 24v36l-3 22-7 29-10 25-5 12-2 15-2 39-4 30-8 37-8 25-8 23-12 26-11 21-13 21-14 20-13 16-7 8-9 10-7 8-8 8-8 7-10 9-14 11-19 14-21 13-18 10-27 13-26 10-26 8-31 7-25 4-18 2-17 1h-20l-24-1-28-3-14-2h-34l-28 1-34-2-32-5-25-6-27-10-20-9-19-10-23-15-13-10-11-9-10-10-8-7-11-12-9-10-13-17-11-18-6-10-12-23-10-25-8-26-6-29-4-33v-37l2-21 4-25 6-23 11-32 10-25 5-16 4-26 6-26 9-29 8-20 14-29 10-17 18-24 2-5v-20l2-26 4-24 7-25 8-21 8-17 10-17 12-17 13-16 6-7 8-7 8-8 17-13 14-10 21-12 23-10 21-7 27-6 17-2z" fill="#030202"/>
<path transform="translate(676,389)" d="m0 0 29 1 27 4 17 4 24 8 18 8 19 10 18 12 12 9 12 11 8 7 11 12 11 14 14 21 12 23 5 8 19 9 18 7 26 1 28 3 24 5 20 7 24 11 17 10 17 12 14 12 18 18 11 14 9 13 9 15 11 23 8 24 5 22 3 24v36l-3 22-7 29-10 25-5 12-2 15-2 39-4 30-8 37-8 25-8 23-12 26-11 21-13 21-14 20-13 16-7 8-9 10-7 8-8 8-8 7-10 9-14 11-19 14-21 13-18 10-27 13-26 10-26 8-31 7-25 4-18 2-17 1h-20l-24-1-28-3-14-2h-34l-28 1-34-2-32-5-25-6-27-10-20-9-19-10-23-15-13-10-11-9-10-10-8-7-11-12-9-10-13-17-11-18-6-10-12-23-10-25-8-26-6-29-4-33v-37l2-21 4-25 6-23 11-32 10-25 5-16 4-26 6-26 9-29 8-20 14-29 10-17 18-24 2-5v-20l2-26 4-24 7-25 8-21 8-17 10-17 12-17 13-16 6-7 8-7 8-8 17-13 14-10 21-12 23-10 21-7 27-6 17-2zm8 174-28 3-28 5-30 8-23 8-24 11-15 8-15 9-21 14-14 11-14 13-8 7-22 24-14 19-10 14-11 18-11 20-12 29-11 34-5 22-4 32-1 13v34l4 37 7 34 12 36 12 27 12 22 10 16 11 15 11 14 15 16 18 18 11 9 14 11 16 11 18 11 20 11 21 9 25 9 25 7 28 5 26 3h43l33-4 26-5 28-8 24-9 25-12 18-10 18-12 19-14 11-10 8-7 22-22 20-25 14-21 13-24 8-16 7-16 10-30 7-31 3-18 2-21v-49l-4-36-6-25-12-36-11-25-10-19-9-15-8-12-12-16-14-17-14-15-7-7-11-9-14-12-19-13-16-10-22-12-25-11-27-9-28-7-30-5-22-2z" fill="#BFA999"/>
<path transform="translate(1165,905)" d="m0 0h1v28l-2 25-4 26-7 32-8 25-8 23-12 26-11 21-13 21-14 20-13 16-7 8-9 10-7 8-8 8-8 7-10 9-14 11-19 14-21 13-18 10-27 13-26 10-26 8-31 7-25 4-18 2-17 1h-20l-24-1-28-3-14-2h-34l-28 1-34-2-32-5-25-6-27-10-20-9-19-10-23-15-13-10-11-9-10-10-8-7-11-12-9-10-13-17-11-18-6-10-12-23-10-25-8-26-6-29-4-33v-37l2-21 4-25 3-7 2-1 3 13-1 2h2l1 10 2 8 6 29 7 24 6 15 7 16 4 10 6 11 8 15 4 7 11 18 8 10v2h2l8 12 1 3h2l9 11 10 11 4 2-3-6-5-6-3-7h3l7 8 12 13 23 23 4 3v2l4 2 3 2v2l4 2 18 14 15 10 15 9 19 10 32 14 27 9 37 9 16 3 31 3h50l27-3 37-7 26-8 25-9 26-12 19-10 16-10 16-11 16-13 13-11 8-7 15-15 7-8 11-13 10-13 17-26 12-22 10-21 10-25 6-20 4-16 5-4 17-10 14-12 6-5 11-14 10-12 8-11 8-12z" fill="#336CF3"/>
<path transform="translate(826,708)" d="m0 0 11 1 10 4 10 6 7 8 4 8 2 9v219l-2 15-7 15-6 9-10 10-9 6-13 6-7 2-8 1h-17l-16-4-8-5-4-1-10-9-8-8-6-10-5-13-3-18 3-19 4-12 6-9 7-8 10-10 16-8 10-3 7-1h11l14 2 12 4 10 6 12 12 1-122-45 14-135 45-11 3v176l-2 16-5 13-6 9-9 11-11 8-13 6-9 3-10 1h-9l-14-2-10-3-3-3-8-4-11-9-10-14-5-11-3-11v-22l5-19 5-8 8-11 9-8 14-8 10-4 7-1h21l15 4 12 6 9 7 5 4 1-186 3-12 6-10 9-9 13-7 40-13 35-12 31-10 25-8 11-3z" fill="#F8F7FA"/>
<path transform="translate(676,389)" d="m0 0 29 1 27 4 17 4 24 8 18 8 19 10 18 12 12 9 12 11 8 7 11 12 11 14 14 21 12 23 3 6-1 2-6 1-7-4-51-11-11-3-15-3-13-2-11-2h-11l-19-2-25 3-38 3-14 2-38 7-32 7-32 11-8 4-13 5-7 3-16 7-2 2-7 3-8 4v-2l-5 2v2l-7 3-4 5-7 4-5 3h-2v2l-4 1-2 4-9 8-5 5h-2l-2 4-4 3h-2v2h-2v2l-8 6-2 3h-2l-2 4-10 11-2 3h-2l-2 6h-1l-1-22 2-26 4-24 7-25 8-21 8-17 10-17 12-17 13-16 6-7 8-7 8-8 17-13 14-10 21-12 23-10 21-7 27-6 17-2z" fill="#FCB866"/>
<path transform="translate(914,543)" d="m0 0 5 1 25 11 6 2 26 1 28 3 24 5 20 7 24 11 17 10 17 12 14 12 18 18 11 14 9 13 9 15 11 23 8 24 5 22 3 24v36l-3 22-7 29-10 25-6 13-5 10-7 10-13 17-12 14-16 16-10 8-13 8-4 1 2-18 3-14 2-25v-42l-2-25-5-31-3-14-9-31-5-15-7-15-5-11-8-16-6-11-4-6v-2h-2l-5-7-4-7-13-18-6-9-5-5-15-16-11-11v-2l-4-2-7-7-14-11-10-9-3-2v-2h-3l-3-3-7-5-5-6-7-6v-2l-5-2-3-3v-2l6-1v-2h2v-2l2-1-2-3-3-11z" fill="#CE5E82"/>
<path transform="translate(373,811)" d="m0 0h2l-1 7-5 22-4 32-1 13v34l4 37 7 34 12 36 12 27 12 22 10 16 11 15 11 14 15 16 17 17 11 9 14 11 16 11 18 11 20 11 21 9 25 9 25 7 28 5 26 3h43l33-4 26-5 28-8 24-9 25-12 18-10 18-12 19-14 11-10 8-7 21-21 20-25 14-21 13-24 8-16 7-16 10-30 7-31 3-18 2-21 1-49h1v56l-4 31-4 19-3 16-1 1v6l4 1 21-7 11-6 10-4 9-7 4-5h2v3l16-9 9-8 8-7 13-13 8-10 11-14 11-16 3-7 1 3-1 11-2-4-8 11-6 9-8 10-14 17-7 8-10 8-11 8-14 8-2 2-5 19-6 20-12 29-12 24-10 17-15 22-7 9-9 11-10 11-7 8-16 16-14 11-9 8-15 11-20 13-18 10-27 13-27 10-18 6-15 4-33 6-27 3h-50l-38-4-34-8-21-6-20-7-30-13-16-8-13-8-11-7-14-10-14-11-3-2v-2l-4-2-10-9-29-29-7-8-3-3v-2l-2 1 5 8 4 5 1 5-5-2-12-13-6-7v-2h-2l-9-13v-2h-2l-11-15-9-15-4-7-9-17-8-15-5-13-7-17-5-15-6-22-5-27-1-5v-7h-2l-2-13-1-1-2 2 1-8 12-36 12-31 7-14 6-5 2-10z" fill="#A4BFFA"/>
<path transform="translate(333,919)" d="m0 0 2 2 2 11-1 2h2l1 10 2 8 6 29 7 24 6 15 7 16 4 10 6 11 8 15 4 7 11 18 8 10v2h2l8 12 1 3h2l9 11 10 11 4 2-3-6-5-6-3-7h3l7 8 12 13 23 23 4 3v2l4 2 3 2v2l4 2 18 14 15 10 15 9 19 10 32 14 27 9 37 9 16 3 31 3h50l27-3 7-1h9l-4 5-16 8-20 9-15 6-24 7-12 4-9 1-2 1-50 2-31-1-27-3-31-6-20-6-25-10-32-16-23-15-13-10-11-9-10-10-8-7-11-12-9-10-13-17-11-18-6-10-12-23-10-25-8-26-6-29-4-33v-37l2-21 4-25 3-7z" fill="#804ACB"/>
<path transform="translate(684,563)" d="m0 0h33l29 3 28 5 26 7 3 2-7-1-25-6-26-4-17-1-7-1h-33l-30 3-24 4-24 6-14 5-15 5-18 8-17 9-13 9-18 11-13 10h-2v2l-9 7-5 4-4 5-5 4-9 11-6 8h-2l-2 4-2 3h-2v2h-2l-2 4-10 14-6 11-6 10-4 5-9 19-6 13-6 16-7 21-4 18-2 10-4 24-1 12-1 28 2 33 5 30 10 37 11 28 10 18 8 16 8 13 11 16 4 5v2h2l11 14 16 17 14 12 13 11 11 8 16 10 18 11 16 8 11 5 26 10 24 7 20 3 43 6h30l12-2 18-2 36-7 24-7 25-10 17-8 18-10 19-12 13-10 14-11 4-2v-2l6-5h2l1-3 8-7 12-14 9-11 9-12 9-14 10-16 8-16 8-15 12-35 4-11 7-36 2-12 2-23v-34l-1-11-1-4-3-14-3-16-7-27-6-17-11-25-8-14 1-3 10 18 11 24 12 36 5 19 3 17 3 28v49l-3 28-5 25-6 24-10 28-11 24-12 22-10 16-14 19-12 14-7 8-22 22-8 7-18 14-18 12-13 8-29 15-20 8-24 8-24 6-23 4-27 3h-43l-33-4-25-5-30-9-21-8-18-8-22-12-23-15-12-9-16-13-12-11-19-19-18-22-16-23-12-22-8-16-9-21-11-33-7-34-4-37v-34l3-31 4-24 7-25 10-29 12-27 13-23 10-15 12-16 10-13 16-17 9-10 10-9 13-11 15-11 14-9 11-7 11-6 27-13 25-9 25-7 23-5 21-3z" fill="#323132"/>
<path transform="translate(763,532)" d="m0 0 11 1 37 7 25 7 20 7 24 9 9 3h6l-2 1 3 6 6 3 23 13 11 7 16 12 13 11 8 7 10 9 8 8v2l3 1 9 11 11 12 13 19 8 12 6 8 5 9 14 26 7 17 5 12 10 31 7 32 4 27 1 12v48l-3 31-5 25-7 8-10 6-10 4-10 5-18 6-4-1-1-1v-6l2-5 2-12 4-19 4-31v-56l-2-24-4-26-4-20-5-15-3-11-2-10-5-17-3-7-3-8v-3h-2l-4-14-11-20v-3h-2l-3-6-7-10-11-16-8-11-6-7v-2l-3-1-7-8-9-9-8-7-7-5-5-5-3-2v-2l-4-2-16-11-14-9-3-3-2-1v-2l-4-2-10-6-28-14-14-6-23-7-7-3-14-2-10-5z" fill="#EBB7C3"/>
<path transform="translate(947,557)" d="m0 0 29 1 28 3 24 5 20 7 24 11 17 10 17 12 14 12 18 18 11 14 9 13 9 15 11 23 8 24 5 22 3 24v36l-3 22-7 29-10 25-6 13-2-1 1-10-1-5v-8l-3-15-5-24-4-17-3-9-8-27-11-29-6-12-10-19-6-10-7-12-6-7-1-3-5-5-4-9-7-8-8-10-20-20-6-5-3-5-5-5-12-11-13-10-18-13-14-9-7-5-11-6v-2l-14-2z" fill="#FC818B"/>
<path transform="translate(373,811)" d="m0 0h2l-1 7-5 22-4 32-1 13v34l4 37 7 34 12 36 12 27 12 22 10 16 11 15 11 14 15 16 17 17 11 9 14 11 16 11 18 11 20 11 21 9 25 9 25 7 28 5 26 3h43l33-4 26-5 28-8 24-9 25-12 18-10 18-12 19-14 11-10 8-7 21-21 20-25 14-21 13-24 8-16 7-16 10-30 7-31 3-18 2-21 1-49h1v56l-4 31-4 19-3 16-3 8-4 11-5 14-7 15-13 25-12 19-11 16-8 10-9 11-14 15-12 12-11 9-12 10-13 9-18 13-14 9-12 6-10 4-15 8-16 8-7 1v2l-13 3-5 2-4-1-9 3-9 2-12 3-4-1-15 1-7 1v2l-10 2h-9l-12-4-6 1-9 3-8 4-4 1 2 4h50l9-1 39-4 19-3 35-8 3 1-3 3h-3v2l-9 5-5 2-1 2h-2v2l-3 2-24 4-20 2h-50l-38-4-34-8-21-6-20-7-30-13-16-8-13-8-11-7-14-10-14-11-3-2v-2l-4-2-10-9-29-29-7-8-3-3v-2l-2 1 5 8 4 5 1 5-5-2-12-13-6-7v-2h-2l-9-13v-2h-2l-11-15-9-15-4-7-9-17-8-15-5-13-7-17-5-15-6-22-5-27-1-5v-7h-2l-2-13-1-1-2 2 1-8 12-36 12-31 7-14 6-5 2-10z" fill="#A88CCC"/>
<path transform="translate(911,246)" d="m0 0h18l16 4 11 6 9 7 8 8 7 11 5 12 2 10v17l-4 16-7 13-9 11-12 9-16 7-8 2h-22l-18-6-11-7-10-9-8-11-7-16-2-9v-16l4-15 8-16 9-10 9-8 15-7z" fill="#4F80F6"/>
<path transform="translate(826,725)" d="m0 0 9 1 8 4 7 8 3 7 1 5v23l-8 3-44 14-36 12-55 18-35 12-11 4h-2v-42l2-8 6-9 14-7 78-26 37-12 14-5z" fill="#040303"/>
<path transform="translate(299,618)" d="m0 0 16 1 12 4 10 6 10 9 7 10 5 12 2 15-2 15-4 11-6 10-9 10-13 8-13 4-12 1-15-2-12-5-9-6-10-10-7-12-3-9-1-5v-17l3-13 6-12 11-12 11-7 10-4z" fill="#FC818B"/>
<path transform="translate(591,974)" d="m0 0h8l12 3 14 7 11 11 8 14 2 12v12l-2 11-8 15-9 9-10 6-10 4-4 1h-18l-11-3-13-7-9-9-7-12-4-14v-9l3-16 8-15 10-10 16-8z" fill="#030202"/>
<path transform="translate(792,906)" d="m0 0h16l12 3 13 7 7 6 6 9 6 12 1 4v21l-3 11-6 10-8 9-10 7-10 4-16 2-15-2-15-8-8-7-7-10-5-12-2-16 3-15 7-14 9-10 14-8z" fill="#030202"/>
<path transform="translate(766,514)" d="m0 0 20 2h13l18 4 7 1 19 4 26 6 18 4 12 3 5 3 8-1 3 3 1 7 3 10 1 2h-3v2h-2v2l-6 1 1 2 3 2 9 8v2l4 2 4 5 9 6v2h3l5 5 13 11 11 9 30 30 7 8 1 3 3 1 14 20 8 11 4 7 1 3h2l7 11 15 30 5 11 5 12 9 28 5 18 4 22 4 30 1 15v42l-2 25-4 21-1 8h-3l2-15 3-17 2-23v-48l-3-27-4-22-6-26-13-38-7-15-8-16-10-19-8-11-10-15-12-17-7-7-12-15-14-14-3-2v-2l-4-2-10-9-14-11-12-9-13-8-17-10-11-6-2-6-8-1-32-12-21-7-24-7-31-5-16-3-6-3-16-2-16-1h-24l-20 3-23 4-25 6-28 8-21 9-4 3-14 7-9 6-14 7-19 12-13 9-3 1v2l-4 1v2l-9 7-4 5-6 5-4 5-3 5-5 5-1 2h-2v2h-2l1 3-5 5h-2l-2 4-6 7-6 2-1 3-6 3-3-1-2-6v-7l2-4 5-5 9-10 7-8 5-4h2v-2h2v-2l7-5 5-5h2l2-4 9-8 3-3h2v-2l5-4 4-1 7-5 2-3 4-2h3v-2l5-2 4-1 7-4 5-2 16-8 6-2 12-5 8-3 8-4 27-9 42-9 28-5 25-3 29-2z" fill="#DBB285"/>
<path transform="translate(480,1185)" d="m0 0 5 2 3 3 10 5 5 4 20 12 16 9 16 8 9 3 31 13 24 8 37 9 16 3 31 3h50l27-3 7-1h9l-4 5-16 8-20 9-15 6-24 7-12 4-9 1-7 1v-1h-16l-13-6v-2l-11-1-11-4-9-5v-2l-18-2-9-6-15-6-7-5v-2h-2l-1-4-10-2-11-6-5-4-5-2v-2l-5-2-7-4-1-2-3-1v-2l-5-2v-2l-4-2-6-4v-2h-2l-4-4-8-7-10-8-8-8-3-5z" fill="#592DC8"/>
<path transform="translate(1167,896)" d="m0 0 1 3-1 11-2-4-8 11-6 9-8 10-14 17-7 8-10 8-11 8-14 8-2 2-5 19-6 20-12 29-12 24-10 17-15 22-7 9-9 11-10 11-7 8-16 16-14 11-9 8-15 11-20 13-18 10-27 13-27 10-18 6-15 4-15 2 2-1v-2h2l1-3 9-4 5-2v-2l5-3 3-2 15-5 15-6 32-16 23-13 17-12 6-4h2v-2l6-4h2v-2l11-9 7-7 8-7 12-12 1-2h2v-2h2l2-4 12-14 4-7 4-4 13-19 4-7 7-11 14-26 6-9 4-8 2-19 3-7 5-3 5-7 9-6h2v-6l4-5h2v3l16-9 9-8 8-7 13-13 8-10 11-14 11-16z" fill="#91B1F9"/>
<path transform="translate(373,811)" d="m0 0h2l-1 7-5 22-4 32-2 38h-1v-33l-1 4v52l2 12 3 22 3 15 5 21 5 17 3 8 12 30 12 23 10 15 9 13 8 11 12 16 1 3h2l7 9 24 24 11 9 10 9 4 2v2l5 2 8 6 20 13 3 3-6-2-14-9-14-10-14-11-3-2v-2l-4-2-10-9-29-29-7-8-3-3v-2l-2 1 5 8 4 5 1 5-5-2-12-13-6-7v-2h-2l-9-13v-2h-2l-11-15-9-15-4-7-9-17-8-15-5-13-7-17-5-15-6-22-5-27-1-5v-7h-2l-2-13-1-1-2 2 1-8 12-36 12-31 7-14 6-5 2-10z" fill="#9B68CA"/>
<path transform="translate(965,1350)" d="m0 0 11 1 12 6 5 4 6 9 2 7v16l-4 10-7 8-9 6-7 2h-16l-10-4-9-8-6-11-1-4v-14l4-11 9-10 8-5z" fill="#FCC187"/>
<path transform="translate(989,436)" d="m0 0h8l11 3 8 6 5 6 4 10v13l-4 11-4 5-9 6-7 2h-15l-10-4-5-4-6-8-3-8v-13l4-10 7-8 8-5z" fill="#FC828C"/>
<path transform="translate(432,655)" d="m0 0 2 2 3 11 6-2 5-4 3-1v2l-4 4-3 5-2 1-4 11-8 13-11 16-6 9-2 8-9 16-8 16-10 25-8 24h-3l-1 7-2 10-5 5h-2l-1 5-3 3 2-10 4-26 6-26 9-29 8-20 14-29 10-17 18-24z" fill="#B8B7D9"/>
<path transform="translate(873,1196)" d="m0 0 2 1-3 1v2l-5 3-6 11-6 5-5 6-11 9-7 6-7 3-26 6-18 4-42 5-16 1-5 1h-50l-3-3 1-2 12-6 9-3 7-1 11 4h9l10-1v-2l9-2 13-1 5 1 8-1 1-2 8-1 11-3 4-1h3l5-2 11-1v-2l12-4 6-4 7-3 16-8 9-4 15-8z" fill="#B9BADC"/>
<path transform="translate(676,519)" d="m0 0 12 1 2 2-5 2-30 5-36 8-32 11-8 4-13 5-7 3-16 7-2 2-7 3-8 4v-2l-5 2v2l-7 3-4 5-7 4-5 3h-2v2l-4 1-2 4-9 8-5 5h-2l-2 4-4 3h-2v2h-2v2l-8 6-2 3h-2l-2 4-10 11-2 3h-2l-2 6h-1l-1-22 2-26 2-13h2l-1 12-1 9 3 7 6-1 10-8 12-9h2l1-3 5-4h3v-2l19-13 9-6 26-16 27-14 17-7 10-3 9-3 13-4 27-6 17-3 9-1z" fill="#FCC085"/>
<path transform="translate(608,1368)" d="m0 0h11l8 3 10 9 4 11v8l-3 8-6 8-8 5-8 2-10-1-8-4-7-8-3-6-1-4v-10l4-9 6-7 7-4z" fill="#9B6ACA"/>
<path transform="translate(913,562)" d="m0 0h4v2h-2v2l-6 1 1 2 3 2 9 8v2l4 2 4 5 9 6v2h3l5 5 13 11 11 9 30 30 7 8 1 3 3 1 14 20 8 11 4 7 1 3h2l7 11 15 30 5 11 5 12 9 28 5 18 4 22 4 30 1 15v42l-2 25-4 21-1 8h-3l2-15 3-17 2-23v-48l-3-27-4-22-6-26-13-38-7-15-8-16-10-19-8-11-10-15-12-17-7-7-12-15-14-14-3-2v-2l-4-2-10-9-14-11-12-9-13-8-17-10-11-6-2-6 8-3z" fill="#FD808A"/>
<path transform="translate(517,1196)" d="m0 0h5v2l4 1 17 9 14 7 4 1 10 3 11 5 12 3 8 3 8 4 3 9h2l-1 4-7-1-13-4-20-8-13-7-11-6-15-9-15-10-3-3z" fill="#B9BADC"/>
<path transform="translate(363,919)" d="m0 0h1l4 37 7 34 12 36 12 27 12 22 10 16 11 15 11 14 15 16 17 17 11 9 14 11 16 11 18 11 20 11 21 9 25 9 25 7 28 5 26 3h43l33-4 22-4 4 1-24 5-30 4h-53l-25-3-19-4-13-2-36-12-21-8-15-8-16-8-15-10-17-12-10-8-11-9-16-15-7-7-7-8-9-10-10-13-14-21-9-15-10-19-13-33-8-25-5-23-5-33z" fill="#9B68CA"/>
<path transform="translate(966,1367)" d="m0 0 4 1 1 8 4 1v-2l13 1 2 3v7l-3 3-4-3-1-7-4 1v9l-7 2v4h-2v2l-11 2-2-5h9v-2l-7-1-3-3-7 1-2 1-4-4 1-4h2l1-6h6l2-1 1-6 6 2v3l5-1-1-5z" fill="#FDB866"/>
<path transform="translate(1097,978)" d="m0 0 2 1-11 8-5 21-6 17-13 30-8 15-8 16-15 23-14 20-9 10-7 9-9 10-10 10-8 7-11 10-17 13-18 12-16 10-27 14-11 5-3-1 35-17 18-11 19-13 16-13 13-11 8-7 15-15 7-8 11-13 10-13 17-26 12-22 10-21 10-25 6-20 4-16 5-4z" fill="#4E7FF6"/>
<path transform="translate(581,410)" d="m0 0 2 1-5 3-3 3-6 2-1 2-7 3-16 11h-2v2l-5 3h-2v2l-11 8-17 17h-2l-1 3h-2l-2 4h-2l-2 4-4 3h-2v3l-4 4-3 7h-2l-2 4-3 1-2 5-2 3-2 5-8 14-5 9-2 2-2 6-4 10-3 5-1-2 8-20 8-16 9-16 12-17 13-16 6-7 8-7 8-8 17-13 14-10 21-12z" fill="#FCC38D"/>
<path transform="translate(426,666)" d="m0 0 1 3-1 5-5 4-1 3-3 3-3 5-4 5-2 7-3 5h-2l-2 9-7 12-2 2-1 7-1 2-1 6h-2l-3 10-3 1 2 4-3 8-2 7-3 8-2 5-2 4 1 4-4 10-2 10-2 12-2 2 2-19 7-31 9-29 8-20 14-29 10-17 9-12z" fill="#FEFEFE"/>
<path transform="translate(616,1389)" d="m0 0h3l4 3 1 1h6v2l3-1h3l1 2 2 1h-2l1 5-3 7-3 2-8 5-1 2-10 1-1-3-2-1v-2h5l3-5-3-1-1-3 2-4-3-1 2-6h2z" fill="#8049CA"/>
<path transform="translate(1038,876)" d="m0 0h1v56l-4 31-4 19-3 16-3 8-4 11-5 14-7 15-13 25-12 19-11 16-8 10-3 3 1-4 15-20 12-19 16-30 9-21 10-30 7-31 3-18 2-21z" fill="#A178CB"/>
<path transform="translate(573,1236)" d="m0 0 5 1 20 8 21 7 37 9 16 3 31 3h50l27-3 7-1h9v1l-36 5-19 1h-30l-26-2-20-2-25-6-28-7-16-6-10-4-13-6z" fill="#8049CB"/>
<path transform="translate(914,543)" d="m0 0 5 1 25 11 3 1 1 3-5 2-21 1-4-2-4-13z" fill="#4D7BF1"/>
<path transform="translate(1167,896)" d="m0 0 1 3-1 11-2-4-8 11-6 9-8 10-14 17-7 8-10 8-11 8-14 8-3 3h-2v-6l4-5h2v3l16-9 9-8 8-7 13-13 8-10 11-14 11-16z" fill="#9763CA"/>
<path transform="translate(1081,983)" d="m0 0 2 1-1 4-13 8-15 8-5 2-10 3-14 6h-2l-2 5-1-3 5-15 3 4 10-2 18-7 7-4 10-4z" fill="#B8B9DB"/>
<path transform="translate(961,1117)" d="m0 0 1 3-10 11-7 8-15 15-11 9-12 10-13 9-18 13-14 9-7 1-12 6-3-1 22-11 14-8 18-12 19-14 11-10 8-7 21-21z" fill="#9F74CB"/>
<path transform="translate(426,666)" d="m0 0 1 3-1 5-5 4-1 3-3 3-3 5-4 5-2 7-3 5h-2l-2 9-7 12-4 1 3-9 13-25 7-11 8-11z" fill="#FEFEFE"/>
<path transform="translate(490,481)" d="m0 0 1 3-4 4-3 7h-2l-2 4-3 1-2 5-2 3-2 5-8 14-5 9-2 2-2 6-4 10-3 5-1-2 8-20 8-16 9-16 12-17 5-5z" fill="#FCC691"/>
<path transform="translate(676,389)" d="m0 0 29 1 9 1v1l-58 1-7 2-16 1-7 3h-8v-2l23-5 17-2z" fill="#FAC18F"/>
<path transform="translate(646,793)" d="m0 0h1l1 126v63h-3z" fill="#BCA6A0"/>
<path transform="translate(1038,876)" d="m0 0h1v56l-4 31-4 19-3 16-3 5-1-4 7-29 4-24 2-21z" fill="#C67C8E"/>
<path transform="translate(373,811)" d="m0 0h2l-1 7-3 12h-2l-1 7-3 8-3 1-3 4-3 7-3 1 1-5 4-11 4-6 1-3 6-5 2-10z" fill="#AC94CF"/>
<path transform="translate(634,1240)" d="m0 0 7 1 10 9 1 3 4 1-1 2-11-2-8-6-2-3z" fill="#B9BADC"/>
<path transform="translate(846,451)" d="m0 0 8 6 10 10 9 11 7 8 7 10-1 2-9-11-5-6-4-4v-2h-2l-1-3-10-10-5-2v-2l-4-2z" fill="#FCCB9B"/>
<path transform="translate(870,1239)" d="m0 0 3 1-12 5-19 7-27 8-14 3h-9v-1l25-5 26-8 25-9z" fill="#4E7FF6"/>
<path transform="translate(432,655)" d="m0 0 2 2 3 11 6-2 5-4 3-1v2l-4 4-3 5-2 1-2 7-5-5-3-7-1-10z" fill="#ECB9C4"/>
<path transform="translate(583,547)" d="m0 0 4 1-8 4-13 5-7 3-16 7-2 2-7 3-8 4v-3l17-9 16-7 10-4 12-5z" fill="#FDB866"/>
<path transform="translate(1023,799)" d="m0 0 2 1 3 10v3h2l5 24 3 24v15h-1l-4-36-6-25-4-13z" fill="#BD899B"/>
<path transform="translate(889,616)" d="m0 0h2v2l9 2 1 3 4 1 4 4 3 1v2l4 2 6 8h-3l-11-9v-2l-4-1-14-10z" fill="#ECB8C4"/>
<path transform="translate(426,666)" d="m0 0 1 3-1 5-5 4-1 3-3 3-3 5-6 7h-2l2-5 7-11 10-13z" fill="#FAFAFC"/>
<path transform="translate(437,689)" d="m0 0v3l-14 19-10 15-1-4 12-18 9-12z" fill="#AE8BB0"/>
<path transform="translate(817,429)" d="m0 0 11 7 12 9 3 4-6 1-4-3v-2l-3-1-2-5-9-5z" fill="#FCC28E"/>
<path transform="translate(1108,967)" d="m0 0m-1 1m-1 1m-1 1m-1 1m-2 1h2l-1 4-11 6-8 6h-2v-6l4-5h2v3z" fill="#9966CA"/>
<path transform="translate(658,390)" d="m0 0 3 1-8 3-4 1-16 1-7 3h-8v-2l23-5z" fill="#FBC391"/>
<path transform="translate(878,1191)" d="m0 0 2 1-10 7-8 5-7 1-12 6-3-1 22-11 12-7z" fill="#A075CB"/>
<path transform="translate(491,596)" d="m0 0v3l-10 9-5 5h-2l-2 4-4 3h-2v2h-2v2l-4 2 2-4 11-11h2l2-4 8-6 3-3z" fill="#FDB866"/>
<path transform="translate(919,1160)" d="m0 0 2 1-10 9-14 10-16 11-5 1 4-4 14-9 19-14z" fill="#A077CB"/>
<path transform="translate(858,600)" d="m0 0h7l11 6 7 5v2l-4-1-9-4-6-2v-3l-6-2z" fill="#E9B5C0"/>
<path transform="translate(646,906)" d="m0 0h1l1 13v63h-3z" fill="#B193AF"/>
<path transform="translate(1167,896)" d="m0 0 1 3-1 11-2-4-8 11-6 9-4 5h-2l2-4 8-11 9-13z" fill="#9B68CA"/>
<path transform="translate(571,1232)" d="m0 0 9 3 14 6 5 2 1 3-10-3-19-8z" fill="#A481CC"/>
<path transform="translate(1165,905)" d="m0 0h1v28l-1 16h-1v-32l-2-4v-5z" fill="#5B83F3"/>
<path transform="translate(866,472)" d="m0 0 4 2 10 12 7 10-1 2-9-11-5-6-4-4v-2h-2z" fill="#FBC698"/>
<path transform="translate(1023 1e3)" d="m0 0 2 1-1 6-3 8-5 14-2 1 1-7z" fill="#A37ECA"/>
<path transform="translate(581,410)" d="m0 0 2 1-5 3-3 3-6 2-1 2-7 3-3 1-2-2 14-8z" fill="#FBC696"/>
<path transform="translate(1019,1020)" d="m0 0h1v11l-8 11-2 4-1-2 7-16z" fill="#91B1F9"/>
<path transform="translate(913,544)" d="m0 0 2 3 4 13 1 2h-7l-1-14z" fill="#BCA79E"/>
<path transform="translate(1023,799)" d="m0 0 2 1 3 10v3h2l2 18-2-3-4-16-3-10z" fill="#BD6F99"/>
<path transform="translate(917,556)" d="m0 0 3 3h17l10-2 1 2-5 2-21 1-4-2z" fill="#9767CA"/>
<path transform="translate(1029,978)" d="m0 0 2 4-3 16-3 5-1-4z" fill="#B890A2"/>
<path transform="translate(424,705)" d="m0 0 1 3-12 18-1-4 10-15z" fill="#B08FAD"/>
<path transform="translate(614,398)" d="m0 0 2 1-1 3-8 1h-3l-1 3-5 1-2-3z" fill="#FDCC9D"/>
<path transform="translate(887,498)" d="m0 0 4 4 9 15 2 6-3-3-6-9-2-2-2-5z" fill="#FCC895"/>
<path transform="translate(382,784)" d="m0 0h1l-1 9-5 15h-1v-7z" fill="#AF8EAE"/>
<path transform="translate(697,1304)" d="m0 0h14l13 2v2l-13-1-14-2z" fill="#638EF6"/>
<path transform="translate(1e3 1054)" d="m0 0 1 4-9 16h-2l2-6z" fill="#A076CB"/>
<path transform="translate(859,1202)" d="m0 0m-2 1h2l-1 3-8 4-7 3-3-1z" fill="#A98ECD"/>
<path transform="translate(1086,977)" d="m0 0h2l1 4-4 6-3 1v-6z" fill="#A88DCC"/>
<path transform="translate(454,540)" d="m0 0 1 3-2 2-3 9-3 5-1-2 6-15z" fill="#FCC592"/>
<path transform="translate(638,1402)" d="m0 0 1 4-7 9-2 1 1-7 4-1z" fill="#A584CE"/>
<path transform="translate(1162,959)" d="m0 0h1l-1 14-1 6h-1v-17h2z" fill="#5C89F6"/>
<path transform="translate(916,551)" d="m0 0 4 1v2h2l1 3-1 2 2 1-5-1-3-6z" fill="#4E7FF6"/>
<path transform="translate(1167,896)" d="m0 0 1 3-1 11-2-4-4 5-2-1 6-9z" fill="#AF8DD0"/>
<path transform="translate(373,811)" d="m0 0h2l-1 7-2 8h-2l1-8z" fill="#AF8EAE"/>
<path transform="translate(628,1412)" d="m0 0 2 1-1 4-5 3h-2l2-5z" fill="#9E72CB"/>
<path transform="translate(440,577)" d="m0 0h2l-2 12-2 6h-1l1-10z" fill="#FCC899"/>
<path transform="translate(878,1191)" d="m0 0 2 1-10 7-2-1 1-3 5-3z" fill="#A584CC"/>
<path transform="translate(962,1119)" d="m0 0v3l-5 7h-2l-2 4h-2l2-4z" fill="#91B1F9"/>
<path transform="translate(355,1129)" d="m0 0h2l5 10-1 4-6-12z" fill="#A482CF"/>
<path transform="translate(795,417)" d="m0 0 6 2 7 4-4 1-2-1v-2l-5-1-2-1z" fill="#FBC496"/>
<path transform="translate(626,395)" d="m0 0 3 1-3 3h-8v-2z" fill="#FAC194"/>
</svg>
