<?xml version="1.0" encoding="UTF-8"?>
<svg version="1.1" viewBox="0 0 1712 880" width="428" height="220" xmlns="http://www.w3.org/2000/svg">
<path transform="translate(919,209)" d="m0 0h76l42 4 21 3 18 3 13 4 10 6 8 8 7 14 1 4v17l-6 20-8 19-9 15-12 16-10 13-11 13-9 10-7 8-12 13-12 14-20 20h-2v2l-8 7-18 18-8 7-16 15-12 11h-2v2l-8 7-8 8-8 7-10 9-8 7-12 11-11 9-11 10-11 9-12 11-8 7-12 11-8 7-26 24-8 7-4 6 1 6 7 2 6 1h11l25-2 15-3 25-4 26-2 39-2 11-1 48-2h13l9 3 9 9 8 7v8l-4 6-5 5-38 6-13 1-39 1-36 3-56 6-26 2-25 1h-14l-25-2-15-2-10-3-6-7-3-9 1-11 3-10 6-11 12-13 4-5h2l2-4 8-8 7-8 34-34 5-6h2l1-3 8-7 17-17 8-7 17-16 8-7 20-18 12-11 11-9 7-7 8-7 11-10 11-9 8-8 8-7 13-13h2v-2l8-7 11-11 7-8 17-17 2-3h2l2-4 9-9 9-11 13-16 9-13 8-14 4-12v-9l-4-7-8-3-14-3-26-3-27-1-13-1h-10l-13 1-23 1-28 4-39 6-10-5-3-5 1-10-4-5-2-7 4-10 5-4 6-2 26-4z"/>
<path transform="translate(377,195)" d="m0 0h10l8 5 8 9 4 9 1 4v11l-9 10-11 13-13 18-16 23-14 22-12 20-12 23-17 35-12 26-12 29-11 28-5 11-8 22-8 32-6 23-3 21-2 17 1 11 4 10 4 6 8 7 14 8 19 7 9 2h12l20-3 61-13 35-9h6l5 3 3 5 1 10-4 6-9 8-12 7-22 10-28 10-20 5-20 3h-38l-17-5-18-8-15-10-13-12-10-11-7-11-7-16-1-4-1-22-1-10v-22l4-16 2-14 6-23 1-10 6-10 3-7 2-12 8-16 15-40 9-21 11-25 6-17 18-37 13-23 12-20 12-19 15-22 13-17 9-10 11-11z"/>
<path transform="translate(641,407)" d="m0 0 11 2 6 4 6 5 10 6 10 9 7 10 3 9 2 11 1 18-2 20-4 17-8 21-12 23-12 18-9 12-13 15-12 11-15 11-17 11-15 9-15 7-8 2-9 1h-14l-10-3-10-8-7-7-9-13-6-12-3-13v-7l2-7v-8l-2-5 1-5 3-3 3-17 7-21 8-17 13-21 13-17 11-14 7-7 5-6 8-7 14-11 16-10 14-6 13-4zm-9 46-15 5-11 7-21 21-12 16-10 15-8 14-8 16-10 21-6 15-2 10v12l4 10 7 5 3 1h9l13-5 14-9 13-11 14-14 9-11 11-15 6-9 11-23 7-20 1-4 1-29-2-11-5-4-10-3z"/>
<path transform="translate(1368,416)" d="m0 0 10 1 8 5 8 10 5 11 1 5v13l-4 16-7 16-10 19-7 15-2 5 4-1 23-16 12-9 18-13 25-16 15-7 19-7 4-1 11 5 9 6 10 9 7 9 4 10 3 19 1 15v17l-2 15-3 24 7 13 8 10 3 6v9l-7 8-9 1-11-1-12-6-8-9-6-11-4-21-2-19v-9l4-13v-26l-4-9-5-1-13 6-12 7-14 9-16 10-27 18-14 10-14 11-10 8-3 1v2l-5 4-11 15-9 14-4 4-10 1-8-4-12-11-8-10-2-4 1-10 5-24 5-15 10-18 5-10 8-22 11-26 8-16 6-17 3-21 3-5z"/>
<path transform="translate(1184,402)" d="m0 0h18l18 3 12 4 8 5 5 4 11 14 6 12 2 7v16l-4 10-6 11-11 13-6 7-8 7-14 11-17 10-14 4h-28l-14-4-14-6-7 1-5 9-4 20v34l4 11 4 6 9 5 18 4h13l17-7 15-10 13-13 8-5 8 4 9 7 1 5-4 10-9 11-11 11-19 14-13 8-11 4-10 2h-14l-17-4-16-8-9-7-8-8-10-14-5-11-4-14-1-11v-28l1-20 3-15 7-19 11-21 12-18 11-13 7-8 6-7 11-9 14-10 21-11zm16 40-13 1-11 6-11 9v2l-4 2-8 8-9 11-6 8-2 3v4l4 3 4 1h33l12-4 10-6 11-10 5-5 5-7 2-6-1-7-4-7-6-4z"/>
</svg>
